<svg xmlns="http://www.w3.org/2000/svg" xmlns:xlink="http://www.w3.org/1999/xlink" viewBox="0 0 204 285"><defs><style>.cls-1{fill:none;}.cls-2{fill:#007c76;}.cls-3{fill:#159e97;}.cls-4{fill:#efb06c;}.cls-5{fill:#ffe2b8;}.cls-6{fill:#fff;}.cls-7{fill:#f24976;}.cls-8{fill:#b7092b;}.cls-9{clip-path:url(#clip-path);}.cls-10{fill:#e9b665;}.cls-11{fill:#fbc56d;}.cls-12{fill:#6d001a;}</style><clipPath id="clip-path"><rect class="cls-1" x="127" y="177" width="77" height="77"/></clipPath></defs><title>body</title><g id="Camada_2" data-name="Camada 2"><g id="Camada_1-2" data-name="Camada 1"><path class="cls-2" d="M16,157a10,10,0,0,1,10-10H156a10,10,0,0,1,10,10V275a10,10,0,0,1-10,10H26a10,10,0,0,1-10-10Z"/><path class="cls-3" d="M36,157a10,10,0,0,1,10-10H156a10,10,0,0,1,10,10V275a10,10,0,0,1-10,10H46a10,10,0,0,1-10-10Z"/><path class="cls-4" d="M177,65h0a11,11,0,0,1,11,11V91a11,11,0,0,1-11,11h0a11,11,0,0,1-11-11V76A11,11,0,0,1,177,65Z"/><circle class="cls-4" cx="94" cy="83" r="83"/><path class="cls-5" d="M99.5,0c37.08,0,68.08,27.89,75.71,65.16A89.43,89.43,0,0,1,177,83c0,45.84-34.7,83-77.5,83S22,128.84,22,83,56.7,0,99.5,0Z"/><path class="cls-4" d="M11,64a10.79,10.79,0,0,1,2.14.21A11,11,0,0,1,22,75V90A11,11,0,0,1,0,90V75A11,11,0,0,1,11,64Z"/><circle class="cls-6" cx="94" cy="64" r="30"/><path class="cls-7" d="M76.64,114.71A3.71,3.71,0,0,1,80.35,111h34.57a3.72,3.72,0,0,1,3.72,3.71V116a21,21,0,0,1-42,0Z"/><path class="cls-8" d="M80.64,116.71A2.71,2.71,0,0,1,83.35,114h28.57a2.71,2.71,0,0,1,2.72,2.71A16.29,16.29,0,0,1,98.35,133H96.92A16.28,16.28,0,0,1,80.64,116.71Z"/><g class="cls-9"><path class="cls-10" d="M191.65,239.15a12.33,12.33,0,0,1-7.57-2.6l-2.51-2a2.55,2.55,0,1,1,3.13-4l2.51,2a7.24,7.24,0,0,0,11.69-5.72v-4a4.4,4.4,0,0,0-5.85-4.16l-6.42,2.23A2.55,2.55,0,1,1,185,216l6.42-2.24a9.51,9.51,0,0,1,12.63,9v4a12.35,12.35,0,0,1-12.35,12.35Z"/><path class="cls-11" d="M189.25,213.35v8.86a24.65,24.65,0,0,1-24.65,24.65h-6.43a24.65,24.65,0,0,1-24.65-24.65v-8.86a2.26,2.26,0,0,1,2.26-2.25H187A2.26,2.26,0,0,1,189.25,213.35Z"/><path class="cls-10" d="M165.26,246.82c-.46,0-.93,0-1.4,0h-5.69a24.65,24.65,0,0,1-24.65-24.65v-8.86a2.26,2.26,0,0,1,2.26-2.25h7.75a2.32,2.32,0,0,0-2.26,2.32v8.05A25.39,25.39,0,0,0,165.26,246.82Z"/></g><path class="cls-6" d="M83.05,114l29.35,0a3.4,3.4,0,0,1,2,1.76,3.31,3.31,0,0,1,.11,2.5H80.71a4.08,4.08,0,0,1,.09-2.46A2.87,2.87,0,0,1,83.05,114Z"/><path class="cls-12" d="M80.71,118.26a16.48,16.48,0,0,0,1,4.14,16.23,16.23,0,0,0,3.08,5.12,43.65,43.65,0,0,1,25.79,0,16.07,16.07,0,0,0,4-9.26Z"/></g></g></svg>