<svg xmlns="http://www.w3.org/2000/svg" viewBox="0 0 265.93 353.67"><defs><style>.cls-1{fill:#1999bb;}.cls-2{fill:#e1a96d;}.cls-3{fill:#f2dbb7;}.cls-4{fill:#fff;}.cls-5{fill:#74381c;}.cls-6{fill:#040006;}.cls-7{fill:#070308;}.cls-8{fill:#3f9e81;}.cls-9{fill:#13768f;}.cls-10{fill:#7ba5ae;}.cls-11{fill:#677174;}</style></defs><title>coding</title><g id="Camada_2" data-name="Camada 2"><g id="Camada_1-2" data-name="Camada 1"><path class="cls-1" d="M240.08,258.91c-.75.34-1.51.67-2.3,1-7.13,2.78-16,4.05-25.32,3.6v11.72a12,12,0,0,1-6.81,10.8h21.87a7.09,7.09,0,0,1,5.29,4.76,1.57,1.57,0,0,1,0,1,7.09,7.09,0,0,1-5.29,4.76H169.36l-.14,28.3H234c18.46-2.09,31.72-17.28,31.89-33.54C265.78,276.83,255.32,263.25,240.08,258.91Z"/><path class="cls-2" d="M213.6,88.28A80.65,80.65,0,0,1,212.51,119a7.89,7.89,0,0,0,1.21.11h1.73a7.27,7.27,0,0,0,7.24-7.25v-18a7.27,7.27,0,0,0-7.24-7.25h-1.73l-.07,1.72Z"/><path class="cls-3" d="M55.3,118.54h0a80.58,80.58,0,0,0,25,42.49h.24A81.07,81.07,0,0,1,55.3,118.54Z"/><path class="cls-3" d="M54.61,86.51v-.06c0,.15-.06.3-.08.46h0C54.56,86.78,54.59,86.64,54.61,86.51Z"/><path class="cls-3" d="M213.6,88.28c-.29-.47-.62-1-1-1.56a62.71,62.71,0,0,0-24.68-22.24,61,61,0,0,0-20.46-5.93,106.72,106.72,0,0,1-33,17,106.36,106.36,0,0,1-32.65,4.75,109.55,109.55,0,0,0-27.93,1.58q-2.94.56-5.67,1.22a64.33,64.33,0,0,0-.87,17.73,91,91,0,0,0,30,60.2h90.29a80.7,80.7,0,0,0,27-60.2A81.35,81.35,0,0,0,213.6,88.28Zm-79.66,63.24a29.34,29.34,0,1,1,29.33-29.34A29.34,29.34,0,0,1,133.94,151.52Z"/><path class="cls-2" d="M80.52,161H97.3a91,91,0,0,1-30-60.2,64.33,64.33,0,0,1,.87-17.73,109.53,109.53,0,0,0-13,4l-.32.12L54.77,87c-.05-.16-.11-.32-.16-.47,0,.13,0,.27-.07.4h0a7,7,0,0,0-2-.28H50.84a7.27,7.27,0,0,0-7.25,7.25v18a7.27,7.27,0,0,0,7.25,7.25h1.73a7.18,7.18,0,0,0,2.7-.53h0A81.07,81.07,0,0,0,80.52,161Z"/><path class="cls-4" d="M133.94,92.84a29.34,29.34,0,1,0,29.33,29.34A29.34,29.34,0,0,0,133.94,92.84Zm0,57a16.22,16.22,0,1,1,12.75-26.22,4.32,4.32,0,1,0-5,7,4.24,4.24,0,0,0,2.29.67,4.34,4.34,0,0,0,4.34-4.34,4.23,4.23,0,0,0-.19-1.19,16.21,16.21,0,0,1-14.21,24Z"/><path class="cls-5" d="M148.34,127a4.34,4.34,0,0,1-4.34,4.34,4.24,4.24,0,0,1-2.29-.67,10.06,10.06,0,1,1-1.38-1.38,4.32,4.32,0,0,1,6.36-5.67,16,16,0,1,0,1.46,2.19A4.23,4.23,0,0,1,148.34,127Z"/><path class="cls-6" d="M123.88,137.09a10.06,10.06,0,1,0,17.83-6.39,4.33,4.33,0,0,1-1.38-1.38,10.06,10.06,0,0,0-16.45,7.77Z"/><path class="cls-7" d="M54.77,87l.09.27.32-.12a109.53,109.53,0,0,1,13-4q2.73-.66,5.67-1.22a109.55,109.55,0,0,1,27.93-1.58,106.36,106.36,0,0,0,32.65-4.75,106.72,106.72,0,0,0,33-17,61,61,0,0,1,20.46,5.93,62.71,62.71,0,0,1,24.68,22.24c.36.56.69,1.09,1,1.56l.05.07.07-1.72L215.15,52A52,52,0,0,0,163.46,0H105.35a52,52,0,0,0-51.7,52c0,24.09-1.25,27.68,1,34.49v.06C54.66,86.66,54.72,86.82,54.77,87Z"/><path class="cls-8" d="M56.39,257.71v-63.8C23.14,206,9.83,233.6,16.38,248c2,4.35,5.92,7.86,11.12,10.44a36.56,36.56,0,0,1,4.39-.77Z"/><path class="cls-9" d="M68.39,287.21a11.88,11.88,0,0,1-5.18-1.2H39.36A7.11,7.11,0,0,0,34,290.77a1.57,1.57,0,0,0,0,1,7.11,7.11,0,0,0,5.34,4.76H110v-.58h59.4v.58h58.16a7.09,7.09,0,0,0,5.29-4.76,1.57,1.57,0,0,0,0-1,7.09,7.09,0,0,0-5.29-4.76H205.65a11.89,11.89,0,0,1-5.19,1.2Z"/><path class="cls-1" d="M39.87,296.49h-.51A7.11,7.11,0,0,1,34,291.73a1.57,1.57,0,0,1,0-1A7.11,7.11,0,0,1,39.36,286H63.21a12,12,0,0,1-6.82-10.8v-17.5H31.89a36.56,36.56,0,0,0-4.39.77C11.36,262.29.16,276.32,0,291.25c.17,16.26,13.43,31.45,31.89,33.54H110v-28.3Z"/><path class="cls-1" d="M133.72,297h0Z"/><path class="cls-8" d="M212.46,263.49c9.28.45,18.19-.82,25.32-3.6.79-.31,1.55-.64,2.3-1,5.63-2.62,9.91-6.27,12-10.87,6.52-14.38-6.66-41.84-39.62-54Z"/><path class="cls-10" d="M68.39,173.05H200.46A13.42,13.42,0,0,1,213.05,186V173a12,12,0,0,0-12-12H68.39a12,12,0,0,0-12,12v12A12,12,0,0,1,68.39,173.05Z"/><path class="cls-11" d="M56.39,275.21A12,12,0,0,0,63.21,286a11.88,11.88,0,0,0,5.18,1.2H200.46a11.89,11.89,0,0,0,5.19-1.2,12,12,0,0,0,6.81-10.8V185.05a11.87,11.87,0,0,0-1.67-6.07,12,12,0,0,0-10.33-5.93H68.39a12,12,0,0,0-12,12v90.16Zm77-46.44a7.94,7.94,0,1,1-7.93,7.93A7.94,7.94,0,0,1,133.36,228.77Z"/><circle class="cls-4" cx="133.36" cy="236.7" r="7.94"/><path class="cls-6" d="M134.89,295.91H110v28.88c.28.14.64.33,1,.56a20.62,20.62,0,0,1,8.53,7.86,22.83,22.83,0,0,1,3,12.76,8.18,8.18,0,0,0,16.34,0V295.91ZM133.72,297Z"/><path class="cls-6" d="M169.36,295.91H140.48V346a8.18,8.18,0,0,0,16.34,0,22.89,22.89,0,0,1,3-12.76,20.46,20.46,0,0,1,8.4-7.86c.4-.23.76-.42,1-.56l.14-28.3Z"/><rect class="cls-1" x="138.84" y="295.91" width="1.64" height="28.88"/></g></g></svg>