<?xml version="1.0" encoding="iso-8859-1"?>
<!-- Generator: Adobe Illustrator 19.0.0, SVG Export Plug-In . SVG Version: 6.00 Build 0)  -->
<svg version="1.1" id="Capa_1" xmlns="http://www.w3.org/2000/svg" xmlns:xlink="http://www.w3.org/1999/xlink" x="0px" y="0px"
	 viewBox="0 0 512.013 512.013" style="enable-background:new 0 0 512.013 512.013;" xml:space="preserve">
<g>
	<polygon style="fill:#EFEDEE;" points="167.613,250.605 112.689,308.643 94.975,378.932 126.032,396.511 175.495,349.228 
		198.67,268.184 	"/>
	<polygon style="fill:#EFEDEE;" points="410.154,372.28 405.163,294.305 361.246,233.17 327.579,245.005 327.579,311.081 
		368.622,361.748 376.487,384.117 	"/>
</g>
<path style="fill:#FFC4B0;" d="M327.579,245.005l-51.931-5.765l-24.557,21.074v37.541l45.866,131.863
	c0,0,69.792-30.01,72.788-66.587L327.579,245.005z"/>
<path style="fill:#E6B09C;" d="M251.088,297.856l75.226,42.58c8.86,5.015,11.976,16.261,6.961,25.12l0,0
	c-5.015,8.86-16.261,11.976-25.12,6.961c8.86,5.015,11.976,16.261,6.961,25.12l0,0c-5.015,8.86-16.261,11.976-25.12,6.961
	c8.86,5.015,11.976,16.261,6.961,25.12l0,0c-5.015,8.86-16.261,11.976-25.12,6.961c8.86,5.015,11.976,16.261,6.961,25.12l0,0
	c-5.015,8.86-16.261,11.976-25.12,6.961l-127.644-72.251l72.637-128.327l20.336,11.511L251.088,297.856z"/>
<polygon style="fill:#D4D2D3;" points="141.163,382.046 100.055,358.778 94.975,378.932 119.203,392.646 126.032,396.511 "/>
<rect x="10.069" y="233.339" transform="matrix(0.4926 -0.8703 0.8703 0.4926 -208.0267 219.0153)" style="fill:#49C3E0;" width="147.466" height="109.121"/>
<polygon style="fill:#D4D2D3;" points="402.299,353.991 369.901,365.382 376.487,384.117 410.154,372.28 408.834,351.669 "/>
<polygon style="fill:#DA5B65;" points="512.013,336.088 464.189,196.977 361.246,233.17 410.153,372.28 "/>
<polygon style="fill:#C0344A;" points="512.013,336.088 505.555,317.302 403.565,353.541 410.154,372.28 410.154,372.28 "/>
<g>
	<path style="fill:#FFCD38;" d="M256.013,95.073c-4.268,0-7.726-3.459-7.726-7.726V48.583c0-4.267,3.458-7.726,7.726-7.726
		c4.268,0,7.726,3.459,7.726,7.726v38.764C263.74,91.614,260.28,95.073,256.013,95.073z"/>
	<path style="fill:#FFCD38;" d="M167.774,119.667c-2.616,0-5.168-1.329-6.62-3.731l-20.049-33.175
		c-2.208-3.652-1.035-8.402,2.617-10.609c3.651-2.207,8.401-1.036,10.609,2.617l20.05,33.176c2.208,3.652,1.035,8.402-2.617,10.609
		C170.514,119.308,169.136,119.667,167.774,119.667z"/>
	<path style="fill:#FFCD38;" d="M104.955,186.36c-1.21,0-2.438-0.285-3.585-0.888l-34.318-18.023
		c-3.778-1.984-5.231-6.655-3.247-10.433c1.983-3.778,6.651-5.233,10.433-3.248l34.318,18.023c3.778,1.984,5.231,6.655,3.247,10.433
		C110.421,184.856,107.734,186.36,104.955,186.36z"/>
	<path style="fill:#FFCD38;" d="M344.252,119.667c-1.361,0-2.739-0.36-3.989-1.115c-3.652-2.207-4.824-6.957-2.617-10.609
		l20.049-33.176c2.208-3.652,6.958-4.823,10.609-2.617c3.652,2.207,4.824,6.957,2.617,10.609l-20.049,33.176
		C349.421,118.338,346.868,119.667,344.252,119.667z"/>
	<path style="fill:#FFCD38;" d="M407.072,186.36c-2.779,0-5.466-1.504-6.847-4.135c-1.984-3.778-0.531-8.449,3.247-10.433
		l34.318-18.023c3.778-1.985,8.45-0.53,10.433,3.248c1.984,3.778,0.531,8.449-3.247,10.433l-34.318,18.023
		C409.511,186.075,408.281,186.36,407.072,186.36z"/>
</g>
<rect x="-2.135" y="333.308" transform="matrix(0.8703 0.4926 -0.4926 0.8703 175.9188 18.7176)" style="fill:#00A5C6;" width="109.121" height="20.042"/>
<path style="fill:#FFC4B0;" d="M275.647,239.241c-19.598-2.176-38.578,7.666-48.093,24.937l-28.254,51.285
	c-4.912,8.916-1.666,20.127,7.25,25.039l0,0c8.916,4.912,20.127,1.666,25.039-7.25l19.499-35.396L275.647,239.241z"/>
<path style="fill:#D9A693;" d="M278.797,461.802c0.228-0.404,0.42-0.816,0.615-1.228c0.033-0.072,0.074-0.141,0.107-0.213
	l-143.614-81.292l-9.872,17.442l36.64,20.74l91.003,51.511c3.322,1.88,6.98,2.618,10.519,2.337c0.59-0.046,1.176-0.122,1.757-0.225
	C271.184,469.951,275.976,466.784,278.797,461.802z"/>
<g>
</g>
<g>
</g>
<g>
</g>
<g>
</g>
<g>
</g>
<g>
</g>
<g>
</g>
<g>
</g>
<g>
</g>
<g>
</g>
<g>
</g>
<g>
</g>
<g>
</g>
<g>
</g>
<g>
</g>
</svg>
